<svg xmlns="http://www.w3.org/2000/svg" xmlns:xlink="http://www.w3.org/1999/xlink" version="1.1" width="256" height="256" viewBox="0 0 256 256" xml:space="preserve">

<defs>
</defs>
<g style="stroke: none; stroke-width: 0; stroke-dasharray: none; stroke-linecap: butt; stroke-linejoin: miter; stroke-miterlimit: 10; fill: none; fill-rule: nonzero; opacity: 1;" transform="translate(1.4065934065934016 1.4065934065934016) scale(2.81 2.81)" >
	<path d="M 81.418 19.947 L 48.489 0.935 c -2.152 -1.243 -4.825 -1.243 -6.976 0 L 8.583 19.947 c -2.152 1.242 -3.488 3.557 -3.488 6.041 v 38.025 c 0 2.484 1.336 4.799 3.488 6.04 l 32.931 19.014 c 1.076 0.62 2.281 0.931 3.487 0.931 s 2.412 -0.311 3.487 -0.932 l 32.93 -19.012 c 2.151 -1.241 3.488 -3.557 3.488 -6.041 V 25.988 C 84.906 23.503 83.569 21.188 81.418 19.947 z M 35.123 55.461 c 0 1.34 -0.889 2.518 -2.177 2.885 c -0.273 0.078 -0.549 0.115 -0.823 0.115 c -1.019 0 -1.992 -0.521 -2.549 -1.418 l -7.438 -11.982 v 10.4 c 0 1.657 -1.343 3 -3 3 s -3 -1.343 -3 -3 V 34.539 c 0 -1.34 0.889 -2.518 2.177 -2.885 c 1.292 -0.365 2.666 0.165 3.372 1.303 l 7.438 11.982 v -10.4 c 0 -1.657 1.343 -3 3 -3 s 3 1.343 3 3 V 55.461 z M 50.557 42 c 1.657 0 3 1.343 3 3 c 0 1.657 -1.343 3 -3 3 h -5.321 v 7.461 c 0 1.657 -1.343 3 -3 3 s -3 -1.343 -3 -3 V 34.539 c 0 -1.657 1.343 -3 3 -3 h 8.321 c 1.657 0 3 1.343 3 3 s -1.343 3 -3 3 h -5.321 V 42 H 50.557 z M 70.864 37.539 h -2.945 v 17.922 c 0 1.657 -1.343 3 -3 3 s -3 -1.343 -3 -3 V 37.539 h -2.945 c -1.657 0 -3 -1.343 -3 -3 s 1.343 -3 3 -3 h 11.891 c 1.657 0 3 1.343 3 3 S 72.521 37.539 70.864 37.539 z" style="stroke: none; stroke-width: 1; stroke-dasharray: none; stroke-linecap: butt; stroke-linejoin: miter; stroke-miterlimit: 10; fill: rgb(137,136,130); fill-rule: nonzero; opacity: 1;" transform=" matrix(1 0 0 1 0 0) " stroke-linecap="round" />
</g>
</svg>